{
  "accessors": [
    {
      "name": "Stars_0_positions",
      "componentType": 5126,
      "count": 4800,
      "min": [
        -1950.72998046875,
        -1989.52001953125,
        -1998.2900390625
      ],
      "max": [
        2002.0799560546875,
        2004.75,
        2003
      ],
      "type": "VEC3",
      "bufferView": 0,
      "byteOffset": 0
    },
    {
      "name": "Stars_0_normals",
      "componentType": 5126,
      "count": 4800,
      "min": [
        -0.577354907989502,
        -0.5773542523384094,
        -0.577354907989502
      ],
      "max": [
        0.577354907989502,
        0.5773542523384094,
        0.577354907989502
      ],
      "type": "VEC3",
      "bufferView": 1,
      "byteOffset": 0
    },
    {
      "name": "Stars_0_indices",
      "componentType": 5123,
      "count": 4800,
      "min": [
        0
      ],
      "max": [
        4799
      ],
      "type": "SCALAR",
      "bufferView": 2,
      "byteOffset": 0
    }
  ],
  "asset": {
    "generator": "obj2gltf",
    "version": "2.0"
  },
  "buffers": [
    {
      "name": "starfield04",
      "byteLength": 124800,
      "uri": "data:application/octet-stream;base64,"
    }
  ],
  "bufferViews": [
    {
      "name": "bufferView_0",
      "buffer": 0,
      "byteLength": 57600,
      "byteOffset": 0,
      "byteStride": 12,
      "target": 34962
    },
    {
      "name": "bufferView_1",
      "buffer": 0,
      "byteLength": 57600,
      "byteOffset": 57600,
      "byteStride": 12,
      "target": 34962
    },
    {
      "name": "bufferView_2",
      "buffer": 0,
      "byteLength": 9600,
      "byteOffset": 115200,
      "target": 34963
    }
  ],
  "materials": [
    {
      "name": "Stars",
      "pbrMetallicRoughness": {
        "baseColorFactor": [
          1,
          1,
          1,
          1
        ],
        "metallicFactor": 0,
        "roughnessFactor": 1
      },
      "emissiveFactor": [
        1,
        1,
        1
      ],
      "alphaMode": "OPAQUE",
      "doubleSided": false
    }
  ],
  "meshes": [
    {
      "name": "Stars",
      "primitives": [
        {
          "attributes": {
            "POSITION": 0,
            "NORMAL": 1
          },
          "indices": 2,
          "material": 0,
          "mode": 4
        }
      ]
    }
  ],
  "nodes": [
    {
      "name": "starfield04.obj",
      "mesh": 0
    }
  ],
  "scene": 0,
  "scenes": [
    {
      "nodes": [
        0
      ]
    }
  ]
}
