{
  "accessors": [
    {
      "name": "text_0_positions",
      "componentType": 5126,
      "count": 1740,
      "min": [
        -2.507920026779175,
        -1.2901300191879272,
        -6.142859751615925e-16
      ],
      "max": [
        2.508009910583496,
        1.2901300191879272,
        6.120149739508854e-16
      ],
      "type": "VEC3",
      "bufferView": 0,
      "byteOffset": 0
    },
    {
      "name": "text_0_normals",
      "componentType": 5126,
      "count": 1740,
      "min": [
        2.4470098925863013e-16,
        -2.654829972134348e-19,
        1
      ],
      "max": [
        2.454399990353299e-16,
        5.704210103807888e-19,
        1
      ],
      "type": "VEC3",
      "bufferView": 1,
      "byteOffset": 0
    },
    {
      "name": "text_0_indices",
      "componentType": 5123,
      "count": 1740,
      "min": [
        0
      ],
      "max": [
        1739
      ],
      "type": "SCALAR",
      "bufferView": 2,
      "byteOffset": 0
    }
  ],
  "asset": {
    "generator": "obj2gltf",
    "version": "2.0"
  },
  "buffers": [
    {
      "name": "title",
      "byteLength": 45240,
      "uri": "data:application/octet-stream;base64,"
    }
  ],
  "bufferViews": [
    {
      "name": "bufferView_0",
      "buffer": 0,
      "byteLength": 20880,
      "byteOffset": 0,
      "byteStride": 12,
      "target": 34962
    },
    {
      "name": "bufferView_1",
      "buffer": 0,
      "byteLength": 20880,
      "byteOffset": 20880,
      "byteStride": 12,
      "target": 34962
    },
    {
      "name": "bufferView_2",
      "buffer": 0,
      "byteLength": 3480,
      "byteOffset": 41760,
      "target": 34963
    }
  ],
  "materials": [
    {
      "name": "text",
      "pbrMetallicRoughness": {
        "baseColorFactor": [
          1,
          1,
          1,
          1
        ],
        "metallicFactor": 0,
        "roughnessFactor": 1
      },
      "emissiveFactor": [
        1,
        1,
        1
      ],
      "alphaMode": "OPAQUE",
      "doubleSided": false
    }
  ],
  "meshes": [
    {
      "name": "text",
      "primitives": [
        {
          "attributes": {
            "POSITION": 0,
            "NORMAL": 1
          },
          "indices": 2,
          "material": 0,
          "mode": 4
        }
      ]
    }
  ],
  "nodes": [
    {
      "name": "title.obj",
      "mesh": 0
    }
  ],
  "scene": 0,
  "scenes": [
    {
      "nodes": [
        0
      ]
    }
  ]
}
